<svg width="1001" height="1000" viewBox="0 0 1001 1000" fill="none" xmlns="http://www.w3.org/2000/svg">
<path fill-rule="evenodd" clip-rule="evenodd" d="M500.373 502.911C549.109 444.166 578.409 368.715 578.409 286.42C578.409 204.126 549.109 128.675 500.373 69.9297C451.637 128.675 422.338 204.126 422.338 286.42C422.338 368.715 451.637 444.166 500.373 502.911Z" fill="#C7E4FF"/>
<path fill-rule="evenodd" clip-rule="evenodd" d="M500.373 930.405C549.109 871.659 578.409 796.208 578.409 713.914C578.409 631.62 549.109 556.169 500.373 497.423C451.637 556.169 422.338 631.62 422.338 713.914C422.338 796.208 451.637 871.659 500.373 930.405Z" fill="#C7E4FF"/>
<path fill-rule="evenodd" clip-rule="evenodd" d="M502.465 500.17C443.72 451.434 368.268 422.136 285.974 422.136C203.679 422.136 128.228 451.434 69.4822 500.17C128.228 548.905 203.679 578.204 285.974 578.204C368.268 578.204 443.72 548.905 502.465 500.17Z" fill="#C7E4FF"/>
<path fill-rule="evenodd" clip-rule="evenodd" d="M929.964 500.17C871.218 451.434 795.767 422.136 713.472 422.136C631.178 422.136 555.726 451.434 496.98 500.17C555.726 548.905 631.178 578.204 713.472 578.204C795.767 578.204 871.218 548.905 929.964 500.17Z" fill="#C7E4FF"/>
<path fill-rule="evenodd" clip-rule="evenodd" d="M498.214 502.553C574.295 496.391 648.753 464.65 707.641 407.165C766.529 349.678 800.053 276.007 808.046 200.096C731.964 206.258 657.507 237.998 598.619 295.484C539.731 352.97 506.207 426.642 498.214 502.553Z" fill="#C7E4FF"/>
<path fill-rule="evenodd" clip-rule="evenodd" d="M192.31 801.174C268.391 795.011 342.848 763.271 401.736 705.786C460.624 648.299 494.148 574.627 502.14 498.717C426.059 504.879 351.602 536.619 292.715 594.105C233.826 651.591 200.302 725.263 192.31 801.174Z" fill="#C7E4FF"/>
<path fill-rule="evenodd" clip-rule="evenodd" d="M501.639 502.131C425.729 494.139 352.057 460.615 294.571 401.728C237.085 342.841 205.345 268.384 199.182 192.304C275.093 200.297 348.764 233.82 406.251 292.708C463.737 351.594 495.477 426.051 501.639 502.131Z" fill="#C7E4FF"/>
<path fill-rule="evenodd" clip-rule="evenodd" d="M800.265 808.036C794.103 731.955 762.363 657.498 704.876 598.61C647.39 539.723 573.719 506.199 497.808 498.207C503.97 574.288 535.71 648.745 593.197 707.633C650.683 766.52 724.355 800.044 800.265 808.036Z" fill="#C7E4FF"/>
<path fill-rule="evenodd" clip-rule="evenodd" d="M497.032 501.925C582.21 528.558 676.828 526.752 765.839 490.217C854.851 453.681 923.454 388.493 965.357 309.699C880.18 283.065 785.562 284.872 696.551 321.407C607.539 357.942 538.936 423.13 497.032 501.925Z" fill="#66ACEC"/>
<path fill-rule="evenodd" clip-rule="evenodd" d="M34.6462 691.707C119.823 718.34 214.44 716.533 303.452 679.998C392.462 643.464 461.064 578.277 502.968 499.484C417.791 472.851 323.174 474.658 234.162 511.193C145.152 547.728 76.5502 612.914 34.6462 691.707Z" fill="#66ACEC"/>
<path fill-rule="evenodd" clip-rule="evenodd" d="M500.931 502.966C527.564 417.789 525.758 323.172 489.222 234.161C452.687 145.15 387.499 76.5487 308.705 34.6451C282.071 119.822 283.878 214.439 320.413 303.451C356.948 392.461 422.136 461.063 500.931 502.966Z" fill="#66ACEC"/>
<path fill-rule="evenodd" clip-rule="evenodd" d="M690.72 965.357C717.353 880.18 715.547 785.564 679.011 696.553C642.476 607.542 577.289 538.941 498.495 497.037C471.861 582.214 473.668 676.831 510.203 765.842C546.738 854.852 611.926 923.454 690.72 965.357Z" fill="#66ACEC"/>
<path fill-rule="evenodd" clip-rule="evenodd" d="M496.544 499.26C537.854 578.367 605.963 644.069 694.696 681.274C783.43 718.478 878.032 720.998 963.408 695.007C922.098 615.899 853.989 550.197 765.256 512.993C676.522 475.788 581.92 473.269 496.544 499.26Z" fill="#66ACEC"/>
<path fill-rule="evenodd" clip-rule="evenodd" d="M35.6027 305.991C76.9119 385.098 145.021 450.8 233.755 488.005C322.489 525.209 417.09 527.729 502.466 501.738C461.157 422.63 393.048 356.928 304.314 319.723C215.58 282.519 120.979 280 35.6027 305.991Z" fill="#66ACEC"/>
<path fill-rule="evenodd" clip-rule="evenodd" d="M498.56 502.754C472.569 417.379 475.088 322.778 512.293 234.045C549.498 145.312 615.201 77.2031 694.309 35.8943C720.3 121.269 717.781 215.87 680.576 304.603C643.371 393.336 577.668 461.445 498.56 502.754Z" fill="#66ACEC"/>
<path fill-rule="evenodd" clip-rule="evenodd" d="M305.288 963.7C279.297 878.325 281.816 783.724 319.021 694.991C356.226 606.259 421.928 538.15 501.036 496.841C527.027 582.216 524.507 676.817 487.303 765.55C450.098 854.282 384.395 922.391 305.288 963.7Z" fill="#66ACEC"/>
<path fill-rule="evenodd" clip-rule="evenodd" d="M498.492 500.981C541.79 514.519 589.888 513.601 635.135 495.029C680.383 476.457 715.256 443.319 736.557 403.265C693.259 389.726 645.161 390.644 599.914 409.216C554.666 427.788 519.793 460.926 498.492 500.981Z" fill="#002B56"/>
<path fill-rule="evenodd" clip-rule="evenodd" d="M263.449 597.448C306.747 610.986 354.843 610.067 400.09 591.495C445.336 572.924 480.208 539.788 501.509 499.736C458.211 486.198 410.115 487.117 364.868 505.688C319.622 524.26 284.75 557.396 263.449 597.448Z" fill="#002B56"/>
<path fill-rule="evenodd" clip-rule="evenodd" d="M500.474 501.51C460.421 480.209 427.284 445.337 408.712 400.09C390.14 354.844 389.222 306.748 402.76 263.45C442.813 284.751 475.95 319.623 494.522 364.87C513.094 410.116 514.012 458.212 500.474 501.51Z" fill="#002B56"/>
<path fill-rule="evenodd" clip-rule="evenodd" d="M596.95 736.553C556.896 715.252 523.759 680.38 505.187 635.133C486.615 589.886 485.697 541.79 499.235 498.493C539.289 519.793 572.426 554.666 590.998 599.913C609.57 645.159 610.489 693.255 596.95 736.553Z" fill="#002B56"/>
<path fill-rule="evenodd" clip-rule="evenodd" d="M498.245 499.622C519.244 539.834 553.866 573.233 598.972 592.145C644.077 611.057 692.166 612.338 735.565 599.126C714.566 558.913 679.944 525.515 634.838 506.603C589.733 487.691 541.644 486.41 498.245 499.622Z" fill="#002B56"/>
<path fill-rule="evenodd" clip-rule="evenodd" d="M263.935 401.378C284.933 441.591 319.555 474.989 364.661 493.901C409.767 512.813 457.855 514.094 501.254 500.882C480.255 460.67 445.634 427.271 400.528 408.359C355.422 389.447 307.334 388.167 263.935 401.378Z" fill="#002B56"/>
<path fill-rule="evenodd" clip-rule="evenodd" d="M499.267 501.397C539.481 480.399 572.879 445.777 591.792 400.672C610.704 355.567 611.985 307.48 598.774 264.082C558.561 285.08 525.162 319.702 506.249 364.808C487.337 409.912 486.056 458 499.267 501.397Z" fill="#002B56"/>
<path fill-rule="evenodd" clip-rule="evenodd" d="M401.023 735.711C441.236 714.713 474.634 680.091 493.546 634.986C512.459 589.88 513.739 541.793 500.528 498.394C460.315 519.393 426.916 554.014 408.004 599.12C389.092 644.225 387.811 692.313 401.023 735.711Z" fill="#002B56"/>
<path fill-rule="evenodd" clip-rule="evenodd" d="M500.086 500.656C511.052 487.438 517.644 470.461 517.644 451.945C517.644 433.428 511.052 416.451 500.086 403.233C489.12 416.451 482.528 433.428 482.528 451.945C482.528 470.461 489.12 487.438 500.086 500.656Z" fill="#FF7A00"/>
<path fill-rule="evenodd" clip-rule="evenodd" d="M500.086 596.842C511.052 583.624 517.644 566.647 517.644 548.131C517.644 529.615 511.052 512.638 500.086 499.42C489.12 512.638 482.528 529.615 482.528 548.131C482.528 566.647 489.12 583.624 500.086 596.842Z" fill="#FF7A00"/>
<path fill-rule="evenodd" clip-rule="evenodd" d="M500.556 500.039C487.338 489.074 470.361 482.481 451.845 482.481C433.329 482.481 416.352 489.074 403.134 500.039C416.352 511.004 433.329 517.597 451.845 517.597C470.362 517.597 487.338 511.004 500.556 500.039Z" fill="#FF7A00"/>
<path fill-rule="evenodd" clip-rule="evenodd" d="M596.745 500.039C583.527 489.074 566.55 482.481 548.034 482.481C529.517 482.481 512.541 489.074 499.323 500.039C512.541 511.004 529.517 517.597 548.034 517.597C566.55 517.597 583.527 511.004 596.745 500.039Z" fill="#FF7A00"/>
<path fill-rule="evenodd" clip-rule="evenodd" d="M499.6 500.576C501.398 483.495 508.941 466.919 522.191 453.984C535.441 441.049 552.194 433.908 569.313 432.521C567.515 449.602 559.972 466.179 546.721 479.113C533.471 492.048 516.718 499.19 499.6 500.576Z" fill="#FF7A00"/>
<path fill-rule="evenodd" clip-rule="evenodd" d="M430.771 567.765C432.569 550.685 440.112 534.109 453.362 521.174C466.612 508.24 483.365 501.098 500.483 499.712C498.685 516.792 491.142 533.368 477.892 546.302C464.642 559.237 447.889 566.378 430.771 567.765Z" fill="#FF7A00"/>
<path fill-rule="evenodd" clip-rule="evenodd" d="M500.37 500.48C483.291 498.682 466.714 491.139 453.78 477.889C440.845 464.639 433.704 447.887 432.317 430.768C449.397 432.567 465.973 440.11 478.908 453.359C491.842 466.609 498.984 483.362 500.37 500.48Z" fill="#FF7A00"/>
<path fill-rule="evenodd" clip-rule="evenodd" d="M567.561 569.31C550.481 567.512 533.905 559.969 520.97 546.719C508.036 533.469 500.894 516.717 499.508 499.598C516.588 501.397 533.164 508.94 546.098 522.189C559.033 535.439 566.174 552.192 567.561 569.31Z" fill="#FF7A00"/>
</svg>
